<svg xmlns="http://www.w3.org/2000/svg" width="48" height="48" viewBox="0 0 2500 2500" version="1.1">
	<path d="M 1205 0.587 C 1156.563 2.744, 1119.741 5.932, 1078 11.582 C 907.089 34.717, 738.119 95.847, 589.500 188.314 C 471.607 261.664, 364.013 357.147, 274.902 467.500 C 183.507 580.681, 110.839 713.805, 64.018 853.828 C 32.522 948.018, 13.095 1041.993, 4.547 1141.500 C 1.148 1181.066, 0.528 1197.765, 0.519 1250 C 0.508 1309.430, 1.992 1338.892, 7.542 1389.500 C 27.656 1572.887, 89.934 1752.378, 188.314 1910.500 C 272.288 2045.469, 384.980 2166.549, 515 2261.503 C 615.897 2335.188, 732.635 2395.317, 853.500 2435.854 C 947.420 2467.354, 1041.825 2486.891, 1141.500 2495.453 C 1181.208 2498.865, 1197.719 2499.477, 1250 2499.477 C 1309.506 2499.477, 1339.061 2497.990, 1389.500 2492.458 C 1572.887 2472.344, 1752.378 2410.066, 1910.500 2311.686 C 1971.292 2273.863, 2027.771 2231.356, 2086 2179.602 C 2103.445 2164.097, 2164.097 2103.445, 2179.602 2086 C 2259.602 1995.991, 2318.801 1908.773, 2369.990 1805.500 C 2439.600 1665.061, 2480.846 1519.455, 2495.026 1364.089 C 2496.884 1343.737, 2498.993 1308.758, 2498.997 1298.250 C 2498.999 1292.086, 2499.399 1288, 2500 1288 C 2500.649 1288, 2501 1274.480, 2501 1249.441 C 2501 1223.990, 2500.660 1211.092, 2500 1211.500 C 2499.358 1211.897, 2498.999 1208.426, 2498.997 1201.809 C 2498.991 1184.904, 2495.950 1142.471, 2492.453 1110.500 C 2472.420 927.347, 2410.058 747.610, 2311.686 589.500 C 2266.424 516.751, 2214.075 449.469, 2154.131 387 C 2049.696 278.166, 1937.402 195.389, 1805.500 130.010 C 1654.683 55.256, 1502.861 14.427, 1331.055 2.419 C 1311.071 1.023, 1223.725 -0.247, 1205 0.587 M 1195 180.088 C 1046.630 187.634, 905.080 224.796, 772 291.143 C 687.752 333.145, 615.565 381.676, 543 445.099 C 511.873 472.305, 458.772 526.498, 430.414 560 C 295.344 719.575, 208.958 919.803, 185.576 1127.500 C 176.722 1206.143, 176.722 1293.857, 185.576 1372.500 C 210.952 1597.906, 310.138 1813.223, 464.743 1978.527 C 481.043 1995.955, 518.063 2032.576, 532.500 2045.555 C 636.238 2138.812, 751.650 2208.400, 882.107 2256.353 C 971.405 2289.176, 1063.797 2309.536, 1159.500 2317.478 C 1229.558 2323.292, 1307.336 2322.015, 1376.500 2313.914 C 1601.631 2287.545, 1815.608 2188.292, 1979.688 2034.127 C 2074.788 1944.773, 2146.400 1850.105, 2204.071 1737.500 C 2281.775 1585.782, 2321 1422.244, 2321 1250 C 2321 1079.180, 2282.980 918.959, 2206.503 767.500 C 2166.646 688.565, 2122.590 622.215, 2066.068 556 C 2023.161 505.735, 1969.460 453.645, 1918 412.372 C 1838.282 348.436, 1746.099 294.607, 1650.500 256.170 C 1537.479 210.728, 1424.955 186.132, 1302.103 180.016 C 1278.976 178.864, 1218.253 178.905, 1195 180.088 M 1239 446.977 C 1224.957 448.756, 1212.416 453.310, 1201.296 460.667 C 1186.814 470.250, 1172.737 487.400, 1166.796 502.700 C 1160.936 517.791, 1161 516.499, 1161 620.387 L 1161 715.599 1144.922 716.821 C 1102.072 720.080, 1065.503 727.671, 1035.367 739.563 C 959.997 769.306, 912.547 830.464, 898.091 916.500 C 894.164 939.866, 893.504 948.971, 893.523 979.500 C 893.538 1003.577, 893.901 1011.763, 895.362 1020.963 C 900.432 1052.898, 907.302 1074.757, 920.985 1102.500 C 948.248 1157.774, 995.873 1206.583, 1066.734 1251.871 C 1100.950 1273.739, 1125.064 1286.902, 1208 1328.980 C 1242.375 1346.420, 1277.025 1364.209, 1285 1368.511 C 1375.980 1417.583, 1418.316 1456.892, 1426.554 1499.944 C 1428.420 1509.697, 1428.404 1534.173, 1426.522 1548.313 C 1423.634 1570.009, 1418.145 1582.216, 1408.149 1589.177 C 1398.792 1595.691, 1377.285 1601.414, 1352.500 1603.984 C 1325.323 1606.803, 1246.783 1607.936, 1215 1605.970 C 1141.932 1601.448, 1093.695 1583.110, 1079.167 1554.331 C 1074.643 1545.369, 1072.996 1537.516, 1071.454 1517.567 C 1070.686 1507.630, 1069.566 1497.700, 1068.965 1495.500 C 1063.143 1474.188, 1049.660 1455.608, 1030.902 1443.048 C 1015.967 1433.048, 1001.603 1428.889, 982 1428.889 C 975.623 1428.889, 967.212 1429.555, 963.309 1430.368 C 936.891 1435.877, 913.594 1454.348, 901.535 1479.347 C 894.158 1494.640, 893.497 1498.290, 893.540 1523.500 C 893.583 1548.515, 895.023 1560.746, 900.664 1584 C 914.748 1642.064, 949.006 1690.593, 1000.016 1724.737 C 1039.604 1751.235, 1084.676 1767.808, 1144.408 1777.829 L 1160.500 1780.528 1161.018 1881.014 C 1161.585 1990.882, 1161.192 1983.669, 1167.444 1999.054 C 1175.134 2017.979, 1194.019 2037.240, 1213.585 2046.111 C 1229.720 2053.427, 1253.236 2055.486, 1271.209 2051.155 C 1304.191 2043.209, 1330.596 2015.942, 1337.415 1982.792 C 1338.797 1976.072, 1339 1962.863, 1339 1879.740 L 1339 1784.395 1355.250 1783.158 C 1462.820 1774.969, 1529.899 1739.834, 1571.948 1669.657 C 1588.722 1641.662, 1599.747 1605.647, 1605.211 1561 C 1607.261 1544.241, 1606.906 1493.317, 1604.638 1479.037 C 1599.511 1446.745, 1592.252 1423.839, 1578.447 1396.388 C 1550.596 1341.010, 1503.764 1293.185, 1433.266 1248.129 C 1399.050 1226.261, 1374.936 1213.098, 1292 1171.020 C 1205.857 1127.315, 1186.714 1116.826, 1156 1096.505 C 1113.557 1068.424, 1086.873 1040.527, 1077.271 1014.196 C 1073.331 1003.392, 1071.998 994.123, 1072.020 977.662 C 1072.053 951.566, 1076.233 929.863, 1083.246 919.369 C 1096.131 900.089, 1136.903 893.010, 1235 893.023 C 1277.128 893.028, 1303.453 895.635, 1331.897 902.620 C 1365.840 910.955, 1396.427 926.651, 1412.062 943.758 C 1423.545 956.322, 1426.634 963.996, 1428.531 984.665 C 1430.551 1006.689, 1433.492 1016.370, 1442.226 1029.749 C 1455.699 1050.387, 1476.300 1064.834, 1499.009 1069.569 C 1508.593 1071.567, 1527.335 1071.553, 1536.853 1069.539 C 1563.398 1063.925, 1586.393 1045.679, 1598.465 1020.653 C 1605.717 1005.620, 1606.480 1001.550, 1606.470 978 C 1606.459 956.121, 1605.125 944.569, 1600.452 925.922 C 1594.553 902.377, 1582.542 875.158, 1569.158 855 C 1536.530 805.860, 1486.781 768.122, 1422.493 743.743 C 1400.749 735.498, 1381.698 730.085, 1355 724.566 L 1339.500 721.362 1338.981 619.931 C 1338.465 519.329, 1338.443 518.442, 1336.286 511.461 C 1333.005 500.848, 1330.403 495.329, 1324.490 486.442 C 1315.462 472.874, 1300.982 460.494, 1286.415 453.889 C 1273.609 448.082, 1253.462 445.146, 1239 446.977 M 0.455 1250.500 C 0.455 1271.950, 0.587 1280.583, 0.749 1269.684 C 0.911 1258.785, 0.910 1241.235, 0.748 1230.684 C 0.587 1220.133, 0.454 1229.050, 0.455 1250.500" stroke="none" fill="#000000" fill-rule="evenodd"></path>
</svg>